<svg width="16" height="16" viewBox="0 0 16 16" fill="none" xmlns="http://www.w3.org/2000/svg">
<path d="M12.2801 12.9479L7.65827 8.437C7.58432 8.36798 7.53255 8.29649 7.50297 8.22254C7.47339 8.14859 7.4586 8.05985 7.4586 7.95632V1.33041H8.6418V7.04674L13.4929 4.26622L14.0919 5.29413L9.12248 8.1338L13.1749 12.1197L12.2801 12.9479ZM8.04281 15.4401C6.99765 15.4401 6.01412 15.2404 5.09221 14.8411C4.1703 14.4467 3.35685 13.897 2.65186 13.192C1.9518 12.487 1.40211 11.6735 1.00278 10.7516C0.603446 9.82972 0.403782 8.84619 0.403782 7.80103C0.403782 6.75587 0.603446 5.77234 1.00278 4.85043C1.40211 3.92852 1.9518 3.11753 2.65186 2.41748C3.35685 1.71249 4.16783 1.16033 5.08481 0.760997C6.00672 0.361668 6.99025 0.162003 8.03541 0.162003C9.0855 0.162003 10.0715 0.361668 10.9934 0.760997C11.9153 1.16033 12.7288 1.71249 13.4338 2.41748C14.1387 3.11753 14.6909 3.92852 15.0902 4.85043C15.4896 5.77234 15.6892 6.75587 15.6892 7.80103C15.6892 8.84619 15.4896 9.82972 15.0902 10.7516C14.6909 11.6735 14.1387 12.487 13.4338 13.192C12.7288 13.897 11.9153 14.4467 10.9934 14.8411C10.0715 15.2404 9.08797 15.4401 8.04281 15.4401ZM8.04281 13.9315C8.8957 13.9315 9.69189 13.7737 10.4314 13.4582C11.1709 13.1427 11.8216 12.7039 12.3837 12.1419C12.9457 11.5799 13.3845 10.9291 13.7 10.1896C14.0155 9.45011 14.1733 8.65392 14.1733 7.80103C14.1733 6.95307 14.0155 6.15934 13.7 5.41984C13.3845 4.67541 12.9457 4.02219 12.3837 3.46017C11.8216 2.89815 11.1684 2.45938 10.424 2.14386C9.6845 1.82834 8.8883 1.67058 8.03541 1.67058C7.18745 1.67058 6.39126 1.82834 5.64683 2.14386C4.90733 2.45938 4.25904 2.89815 3.70195 3.46017C3.14486 4.02219 2.70855 4.67541 2.39303 5.41984C2.07751 6.15934 1.91975 6.95307 1.91975 7.80103C1.91975 8.65392 2.07751 9.45011 2.39303 10.1896C2.70855 10.9291 3.14486 11.5799 3.70195 12.1419C4.26397 12.7039 4.91473 13.1427 5.65423 13.4582C6.39865 13.7737 7.19485 13.9315 8.04281 13.9315Z" fill="white"/>
</svg>
