<svg width="18" height="18" viewBox="0 0 18 18" fill="none" xmlns="http://www.w3.org/2000/svg">
<g clip-path="url(#clip0_1_2535)">
<path d="M16.6191 5.21429H6.14289M4.23812 5.21429H1.38098M16.6191 14.7381H6.14289M4.23812 14.7381H1.38098M11.8572 9.97619H1.38098M16.6191 9.97619H13.7619M5.19051 3.30952C5.44309 3.30952 5.68533 3.40986 5.86394 3.58847C6.04255 3.76708 6.14289 4.00932 6.14289 4.26191V6.16667C6.14289 6.41925 6.04255 6.6615 5.86394 6.8401C5.68533 7.01871 5.44309 7.11905 5.19051 7.11905C4.93792 7.11905 4.69568 7.01871 4.51707 6.8401C4.33846 6.6615 4.23812 6.41925 4.23812 6.16667V4.26191C4.23812 4.00932 4.33846 3.76708 4.51707 3.58847C4.69568 3.40986 4.93792 3.30952 5.19051 3.30952V3.30952ZM5.19051 12.8333C5.44309 12.8333 5.68533 12.9337 5.86394 13.1123C6.04255 13.2909 6.14289 13.5331 6.14289 13.7857V15.6905C6.14289 15.9431 6.04255 16.1853 5.86394 16.3639C5.68533 16.5425 5.44309 16.6429 5.19051 16.6429C4.93792 16.6429 4.69568 16.5425 4.51707 16.3639C4.33846 16.1853 4.23812 15.9431 4.23812 15.6905V13.7857C4.23812 13.5331 4.33846 13.2909 4.51707 13.1123C4.69568 12.9337 4.93792 12.8333 5.19051 12.8333ZM12.8096 8.07143C13.0621 8.07143 13.3044 8.17177 13.483 8.35038C13.6616 8.52898 13.7619 8.77122 13.7619 9.02381V10.9286C13.7619 11.1812 13.6616 11.4234 13.483 11.602C13.3044 11.7806 13.0621 11.881 12.8096 11.881C12.557 11.881 12.3147 11.7806 12.1361 11.602C11.9575 11.4234 11.8572 11.1812 11.8572 10.9286V9.02381C11.8572 8.77122 11.9575 8.52898 12.1361 8.35038C12.3147 8.17177 12.557 8.07143 12.8096 8.07143V8.07143Z" stroke="currentColor" stroke-width="1.5" stroke-linecap="round" stroke-linejoin="round"/>
</g>
<defs>
<clipPath id="clip0_1_2535">
<rect width="18" height="18" fill="white"/>
</clipPath>
</defs>
</svg>
