<svg width="16" height="14" viewBox="0 0 16 14" fill="none" xmlns="http://www.w3.org/2000/svg">
<path d="M6.32021 8.77507C5.88896 8.34457 5.62646 7.75957 5.62646 7.10332C5.62646 5.78857 6.68547 4.72882 7.99947 4.72882C8.64972 4.72882 9.24822 4.99207 9.67197 5.42257" stroke="#737373" stroke-width="1.2" stroke-linecap="round" stroke-linejoin="round"/>
<path d="M10.3285 7.52417C10.1545 8.49167 9.39253 9.25517 8.42578 9.43067" stroke="#737373" stroke-width="1.2" stroke-linecap="round" stroke-linejoin="round"/>
<path d="M3.99076 11.1042C2.80051 10.1697 1.79251 8.80473 1.06201 7.10298C1.80001 5.39373 2.81476 4.02123 4.01251 3.07923C5.20276 2.13723 6.57601 1.62573 7.99951 1.62573C9.43126 1.62573 10.8038 2.14473 12.0015 3.09348" stroke="#737373" stroke-width="1.2" stroke-linecap="round" stroke-linejoin="round"/>
<path d="M13.5856 4.7431C14.1016 5.4286 14.5553 6.21985 14.9371 7.1026C13.4618 10.5204 10.8548 12.5791 7.99959 12.5791C7.35234 12.5791 6.71409 12.4741 6.10059 12.2694" stroke="#737373" stroke-width="1.2" stroke-linecap="round" stroke-linejoin="round"/>
<path d="M13.915 1.18719L2.08447 13.0177" stroke="#737373" stroke-width="1.2" stroke-linecap="round" stroke-linejoin="round"/>
</svg>
