<svg className='w-7 h-7' viewBox="0 0 30 30" fill="none" xmlns="http://www.w3.org/2000/svg">
    <path
        d="M28.1667 30L17.2083 19.0417C16.375 19.7639 15.4028 20.3264 14.2917 20.7292C13.1806 21.1319 12 21.3333 10.75 21.3333C7.75 21.3333 5.20833 20.2917 3.125 18.2083C1.04167 16.125 0 13.6111 0 10.6667C0 7.72222 1.04167 5.20833 3.125 3.125C5.20833 1.04167 7.73611 0 10.7083 0C13.6528 0 16.1597 1.04167 18.2292 3.125C20.2986 5.20833 21.3333 7.72222 21.3333 10.6667C21.3333 11.8611 21.1389 13.0139 20.75 14.125C20.3611 15.2361 19.7778 16.2778 19 17.25L30 28.1667L28.1667 30ZM10.7083 18.8333C12.9583 18.8333 14.875 18.0347 16.4583 16.4375C18.0417 14.8403 18.8333 12.9167 18.8333 10.6667C18.8333 8.41666 18.0417 6.49306 16.4583 4.89583C14.875 3.29861 12.9583 2.5 10.7083 2.5C8.43055 2.5 6.49305 3.29861 4.89583 4.89583C3.29861 6.49306 2.5 8.41666 2.5 10.6667C2.5 12.9167 3.29861 14.8403 4.89583 16.4375C6.49305 18.0347 8.43055 18.8333 10.7083 18.8333Z"
        fill="#7C859A" />
</svg>